<svg width="244" height="22" viewBox="0 0 244 22" fill="none" xmlns="http://www.w3.org/2000/svg">
<path d="M0 0H244L232.407 22H0V0Z" fill="#E3000B"/>
<path d="M0 0H86L73.5043 22H0V0Z" fill="#E8EAED"/>
<path d="M86.5 0H173L158.615 22H74L86.5 0Z" fill="#E8EAED"/>
<path d="M189.982 15H188.294L191.366 6.27273H193.318L196.395 15H194.707L192.376 8.0625H192.308L189.982 15ZM190.037 11.5781H194.639V12.848H190.037V11.5781ZM197.544 15V6.27273H200.885C201.516 6.27273 202.04 6.37216 202.458 6.57102C202.878 6.76705 203.192 7.03551 203.4 7.37642C203.61 7.71733 203.715 8.10369 203.715 8.53551C203.715 8.89062 203.647 9.1946 203.51 9.44744C203.374 9.69744 203.191 9.90057 202.961 10.0568C202.73 10.2131 202.473 10.3253 202.189 10.3935V10.4787C202.499 10.4957 202.796 10.5909 203.08 10.7642C203.367 10.9347 203.601 11.1761 203.783 11.4886C203.965 11.8011 204.056 12.179 204.056 12.6222C204.056 13.0739 203.946 13.4801 203.728 13.8409C203.509 14.1989 203.179 14.4815 202.739 14.6889C202.299 14.8963 201.745 15 201.077 15H197.544ZM199.125 13.679H200.826C201.4 13.679 201.813 13.5696 202.066 13.3509C202.321 13.1293 202.449 12.8452 202.449 12.4986C202.449 12.2401 202.385 12.0071 202.257 11.7997C202.13 11.5895 201.948 11.4247 201.712 11.3054C201.476 11.1832 201.195 11.1222 200.868 11.1222H199.125V13.679ZM199.125 9.98438H200.689C200.962 9.98438 201.208 9.93466 201.426 9.83523C201.645 9.73295 201.817 9.58949 201.942 9.40483C202.07 9.21733 202.134 8.99574 202.134 8.74006C202.134 8.40199 202.015 8.12358 201.776 7.90483C201.54 7.68608 201.189 7.5767 200.723 7.5767H199.125V9.98438ZM205.431 15V6.27273H208.772C209.403 6.27273 209.927 6.37216 210.344 6.57102C210.765 6.76705 211.079 7.03551 211.286 7.37642C211.496 7.71733 211.602 8.10369 211.602 8.53551C211.602 8.89062 211.533 9.1946 211.397 9.44744C211.261 9.69744 211.077 9.90057 210.847 10.0568C210.617 10.2131 210.36 10.3253 210.076 10.3935V10.4787C210.386 10.4957 210.683 10.5909 210.967 10.7642C211.254 10.9347 211.488 11.1761 211.67 11.4886C211.852 11.8011 211.942 12.179 211.942 12.6222C211.942 13.0739 211.833 13.4801 211.614 13.8409C211.396 14.1989 211.066 14.4815 210.626 14.6889C210.185 14.8963 209.631 15 208.964 15H205.431ZM207.012 13.679H208.712C209.286 13.679 209.7 13.5696 209.952 13.3509C210.208 13.1293 210.336 12.8452 210.336 12.4986C210.336 12.2401 210.272 12.0071 210.144 11.7997C210.016 11.5895 209.835 11.4247 209.599 11.3054C209.363 11.1832 209.082 11.1222 208.755 11.1222H207.012V13.679ZM207.012 9.98438H208.576C208.849 9.98438 209.094 9.93466 209.313 9.83523C209.532 9.73295 209.704 9.58949 209.829 9.40483C209.957 9.21733 210.021 8.99574 210.021 8.74006C210.021 8.40199 209.901 8.12358 209.663 7.90483C209.427 7.68608 209.076 7.5767 208.61 7.5767H207.012V9.98438Z" fill="white"/>
<path d="M20.8608 15V6.27273H22.4418V9.96733H26.4858V6.27273H28.071V15H26.4858V11.2926H22.4418V15H20.8608ZM32.5774 15.1278C31.9382 15.1278 31.3842 14.9872 30.9155 14.706C30.4467 14.4247 30.0831 14.0312 29.8246 13.5256C29.5689 13.0199 29.4411 12.429 29.4411 11.7528C29.4411 11.0767 29.5689 10.4844 29.8246 9.97585C30.0831 9.46733 30.4467 9.07244 30.9155 8.79119C31.3842 8.50994 31.9382 8.36932 32.5774 8.36932C33.2166 8.36932 33.7706 8.50994 34.2393 8.79119C34.7081 9.07244 35.0703 9.46733 35.326 9.97585C35.5845 10.4844 35.7138 11.0767 35.7138 11.7528C35.7138 12.429 35.5845 13.0199 35.326 13.5256C35.0703 14.0312 34.7081 14.4247 34.2393 14.706C33.7706 14.9872 33.2166 15.1278 32.5774 15.1278ZM32.5859 13.892C32.9325 13.892 33.2223 13.7969 33.4553 13.6065C33.6882 13.4134 33.8615 13.1548 33.9751 12.831C34.0916 12.5071 34.1499 12.1463 34.1499 11.7486C34.1499 11.348 34.0916 10.9858 33.9751 10.6619C33.8615 10.3352 33.6882 10.0753 33.4553 9.8821C33.2223 9.68892 32.9325 9.59233 32.5859 9.59233C32.2308 9.59233 31.9354 9.68892 31.6996 9.8821C31.4666 10.0753 31.2919 10.3352 31.1754 10.6619C31.0618 10.9858 31.005 11.348 31.005 11.7486C31.005 12.1463 31.0618 12.5071 31.1754 12.831C31.2919 13.1548 31.4666 13.4134 31.6996 13.6065C31.9354 13.7969 32.2308 13.892 32.5859 13.892ZM37.0231 15V8.45455H38.4975V9.56676H38.5742C38.7106 9.19176 38.9364 8.89915 39.2518 8.68892C39.5671 8.47585 39.9435 8.36932 40.381 8.36932C40.8242 8.36932 41.1978 8.47727 41.5018 8.69318C41.8086 8.90625 42.0245 9.19744 42.1495 9.56676H42.2177C42.3626 9.20312 42.6069 8.91335 42.9506 8.69744C43.2972 8.47869 43.7077 8.36932 44.1822 8.36932C44.7844 8.36932 45.2759 8.55966 45.6566 8.94034C46.0373 9.32102 46.2276 9.87642 46.2276 10.6065V15H44.6808V10.8452C44.6808 10.4389 44.5728 10.142 44.3569 9.95455C44.141 9.7642 43.8768 9.66903 43.5643 9.66903C43.1921 9.66903 42.9009 9.78551 42.6907 10.0185C42.4833 10.2486 42.3796 10.5483 42.3796 10.9176V15H40.8668V10.7812C40.8668 10.4432 40.7646 10.1733 40.56 9.97159C40.3583 9.76989 40.0941 9.66903 39.7674 9.66903C39.5458 9.66903 39.3441 9.72585 39.1623 9.83949C38.9805 9.95028 38.8356 10.108 38.7276 10.3125C38.6197 10.5142 38.5657 10.75 38.5657 11.0199V15H37.0231ZM50.6903 15.1278C50.0341 15.1278 49.4673 14.9915 48.9901 14.7188C48.5156 14.4432 48.1506 14.054 47.8949 13.5511C47.6392 13.0455 47.5114 12.4503 47.5114 11.7656C47.5114 11.0923 47.6392 10.5014 47.8949 9.9929C48.1534 9.48153 48.5142 9.08381 48.9773 8.79972C49.4403 8.51278 49.9844 8.36932 50.6094 8.36932C51.0128 8.36932 51.3935 8.43466 51.7514 8.56534C52.1122 8.69318 52.4304 8.89205 52.706 9.16193C52.9844 9.43182 53.2031 9.77557 53.3622 10.1932C53.5213 10.608 53.6009 11.1023 53.6009 11.6761V12.1491H48.2358V11.1094H52.1222C52.1193 10.8139 52.0554 10.5511 51.9304 10.321C51.8054 10.0881 51.6307 9.90483 51.4062 9.77131C51.1847 9.63778 50.9261 9.57102 50.6307 9.57102C50.3153 9.57102 50.0384 9.64773 49.7997 9.80114C49.5611 9.9517 49.375 10.1506 49.2415 10.3977C49.1108 10.642 49.044 10.9105 49.0412 11.2031V12.1108C49.0412 12.4915 49.1108 12.8182 49.25 13.0909C49.3892 13.3608 49.5838 13.5682 49.8338 13.7131C50.0838 13.8551 50.3764 13.9261 50.7116 13.9261C50.9361 13.9261 51.1392 13.8949 51.321 13.8324C51.5028 13.767 51.6605 13.6719 51.794 13.5469C51.9276 13.4219 52.0284 13.267 52.0966 13.0824L53.5369 13.2443C53.446 13.625 53.2727 13.9574 53.017 14.2415C52.7642 14.5227 52.4403 14.7415 52.0455 14.8977C51.6506 15.0511 51.1989 15.1278 50.6903 15.1278Z" fill="#636C7B"/>
<path d="M100.861 15V6.27273H104.134C104.804 6.27273 105.366 6.39773 105.821 6.64773C106.278 6.89773 106.624 7.24148 106.857 7.67898C107.092 8.11364 107.21 8.60795 107.21 9.16193C107.21 9.72159 107.092 10.2187 106.857 10.6534C106.621 11.0881 106.273 11.4304 105.812 11.6804C105.352 11.9276 104.786 12.0511 104.112 12.0511H101.943V10.7514H103.899C104.291 10.7514 104.612 10.6832 104.862 10.5469C105.112 10.4105 105.297 10.223 105.416 9.98438C105.538 9.74574 105.599 9.47159 105.599 9.16193C105.599 8.85227 105.538 8.57955 105.416 8.34375C105.297 8.10795 105.111 7.92472 104.858 7.79403C104.608 7.66051 104.286 7.59375 103.891 7.59375H102.442V15H100.861ZM110.282 15.1321C109.867 15.1321 109.493 15.0582 109.161 14.9105C108.831 14.7599 108.57 14.5384 108.377 14.2457C108.186 13.9531 108.091 13.5923 108.091 13.1634C108.091 12.794 108.159 12.4886 108.296 12.2472C108.432 12.0057 108.618 11.8125 108.854 11.6676C109.09 11.5227 109.355 11.4134 109.651 11.3395C109.949 11.2628 110.257 11.2074 110.576 11.1733C110.959 11.1335 111.27 11.098 111.509 11.0668C111.748 11.0327 111.921 10.9815 112.029 10.9134C112.14 10.8423 112.195 10.733 112.195 10.5852V10.5597C112.195 10.2386 112.1 9.99006 111.909 9.81392C111.719 9.63778 111.445 9.54972 111.087 9.54972C110.709 9.54972 110.409 9.6321 110.188 9.79688C109.969 9.96165 109.821 10.1562 109.745 10.3807L108.304 10.1761C108.418 9.77841 108.605 9.44602 108.867 9.17898C109.128 8.90909 109.448 8.70739 109.826 8.57386C110.203 8.4375 110.621 8.36932 111.078 8.36932C111.394 8.36932 111.708 8.40625 112.02 8.48011C112.333 8.55398 112.618 8.67614 112.877 8.84659C113.135 9.0142 113.343 9.2429 113.499 9.53267C113.658 9.82244 113.738 10.1847 113.738 10.6193V15H112.255V14.1009H112.203C112.11 14.2827 111.978 14.4531 111.807 14.6122C111.64 14.7685 111.428 14.8949 111.172 14.9915C110.919 15.0852 110.623 15.1321 110.282 15.1321ZM110.682 13.9986C110.992 13.9986 111.26 13.9375 111.488 13.8153C111.715 13.6903 111.89 13.5256 112.012 13.321C112.137 13.1165 112.199 12.8935 112.199 12.652V11.8807C112.151 11.9205 112.069 11.9574 111.952 11.9915C111.838 12.0256 111.711 12.0554 111.569 12.081C111.426 12.1065 111.286 12.1293 111.147 12.1491C111.007 12.169 110.887 12.1861 110.784 12.2003C110.554 12.2315 110.348 12.2827 110.167 12.3537C109.985 12.4247 109.841 12.5241 109.736 12.652C109.631 12.777 109.578 12.9389 109.578 13.1378C109.578 13.4219 109.682 13.6364 109.89 13.7812C110.097 13.9261 110.361 13.9986 110.682 13.9986ZM115.289 15V8.45455H116.784V9.54545H116.853C116.972 9.16761 117.176 8.87642 117.466 8.67188C117.759 8.46449 118.093 8.3608 118.468 8.3608C118.553 8.3608 118.648 8.36506 118.753 8.37358C118.861 8.37926 118.951 8.3892 119.022 8.40341V9.82244C118.956 9.79972 118.853 9.77983 118.711 9.76278C118.571 9.7429 118.436 9.73295 118.306 9.73295C118.025 9.73295 117.772 9.79403 117.547 9.91619C117.326 10.0355 117.151 10.2017 117.023 10.4148C116.895 10.6278 116.831 10.8736 116.831 11.152V15H115.289ZM123.667 8.45455V9.64773H119.904V8.45455H123.667ZM120.833 6.88636H122.375V13.0312C122.375 13.2386 122.407 13.3977 122.469 13.5085C122.534 13.6165 122.62 13.6903 122.725 13.7301C122.83 13.7699 122.946 13.7898 123.074 13.7898C123.171 13.7898 123.259 13.7827 123.338 13.7685C123.421 13.7543 123.483 13.7415 123.526 13.7301L123.786 14.9361C123.703 14.9645 123.586 14.9957 123.432 15.0298C123.282 15.0639 123.097 15.0838 122.878 15.0895C122.492 15.1009 122.144 15.0426 121.834 14.9148C121.525 14.7841 121.279 14.5824 121.097 14.3097C120.918 14.0369 120.83 13.696 120.833 13.2869V6.88636ZM126.499 11.1648V15H124.957V8.45455H126.431V9.56676H126.508C126.658 9.20028 126.898 8.90909 127.228 8.69318C127.56 8.47727 127.971 8.36932 128.46 8.36932C128.911 8.36932 129.305 8.46591 129.64 8.65909C129.978 8.85227 130.239 9.1321 130.424 9.49858C130.612 9.86506 130.704 10.3097 130.701 10.8324V15H129.158V11.071C129.158 10.6335 129.045 10.2912 128.817 10.044C128.593 9.79687 128.282 9.6733 127.884 9.6733C127.614 9.6733 127.374 9.73295 127.164 9.85227C126.957 9.96875 126.793 10.1378 126.674 10.3594C126.558 10.581 126.499 10.8494 126.499 11.1648ZM135.167 15.1278C134.511 15.1278 133.944 14.9915 133.467 14.7188C132.992 14.4432 132.627 14.054 132.371 13.5511C132.116 13.0455 131.988 12.4503 131.988 11.7656C131.988 11.0923 132.116 10.5014 132.371 9.9929C132.63 9.48153 132.991 9.08381 133.454 8.79972C133.917 8.51278 134.461 8.36932 135.086 8.36932C135.489 8.36932 135.87 8.43466 136.228 8.56534C136.589 8.69318 136.907 8.89205 137.183 9.16193C137.461 9.43182 137.68 9.77557 137.839 10.1932C137.998 10.608 138.077 11.1023 138.077 11.6761V12.1491H132.712V11.1094H136.599C136.596 10.8139 136.532 10.5511 136.407 10.321C136.282 10.0881 136.107 9.90483 135.883 9.77131C135.661 9.63778 135.403 9.57102 135.107 9.57102C134.792 9.57102 134.515 9.64773 134.276 9.80114C134.038 9.9517 133.852 10.1506 133.718 10.3977C133.587 10.642 133.521 10.9105 133.518 11.2031V12.1108C133.518 12.4915 133.587 12.8182 133.727 13.0909C133.866 13.3608 134.06 13.5682 134.31 13.7131C134.56 13.8551 134.853 13.9261 135.188 13.9261C135.413 13.9261 135.616 13.8949 135.798 13.8324C135.979 13.767 136.137 13.6719 136.271 13.5469C136.404 13.4219 136.505 13.267 136.573 13.0824L138.013 13.2443C137.923 13.625 137.749 13.9574 137.494 14.2415C137.241 14.5227 136.917 14.7415 136.522 14.8977C136.127 15.0511 135.675 15.1278 135.167 15.1278ZM139.382 15V8.45455H140.878V9.54545H140.946C141.066 9.16761 141.27 8.87642 141.56 8.67188C141.853 8.46449 142.186 8.3608 142.561 8.3608C142.647 8.3608 142.742 8.36506 142.847 8.37358C142.955 8.37926 143.044 8.3892 143.115 8.40341V9.82244C143.05 9.79972 142.946 9.77983 142.804 9.76278C142.665 9.7429 142.53 9.73295 142.4 9.73295C142.118 9.73295 141.865 9.79403 141.641 9.91619C141.419 10.0355 141.245 10.2017 141.117 10.4148C140.989 10.6278 140.925 10.8736 140.925 11.152V15H139.382ZM149.314 10.1847L147.907 10.3381C147.868 10.196 147.798 10.0625 147.699 9.9375C147.602 9.8125 147.471 9.71165 147.306 9.63494C147.142 9.55824 146.94 9.51989 146.701 9.51989C146.38 9.51989 146.11 9.58949 145.892 9.72869C145.676 9.8679 145.569 10.0483 145.572 10.2699C145.569 10.4602 145.639 10.6151 145.781 10.7344C145.926 10.8537 146.164 10.9517 146.497 11.0284L147.613 11.267C148.233 11.4006 148.693 11.6122 148.994 11.902C149.298 12.1918 149.451 12.571 149.454 13.0398C149.451 13.4517 149.331 13.8153 149.092 14.1307C148.856 14.4432 148.528 14.6875 148.108 14.8636C147.687 15.0398 147.204 15.1278 146.659 15.1278C145.858 15.1278 145.213 14.9602 144.724 14.625C144.235 14.2869 143.944 13.8168 143.85 13.2145L145.355 13.0696C145.423 13.3651 145.568 13.5881 145.789 13.7386C146.011 13.8892 146.299 13.9645 146.654 13.9645C147.021 13.9645 147.315 13.8892 147.537 13.7386C147.761 13.5881 147.873 13.402 147.873 13.1804C147.873 12.9929 147.801 12.8381 147.656 12.7159C147.514 12.5937 147.292 12.5 146.991 12.4347L145.875 12.2003C145.247 12.0696 144.782 11.8494 144.481 11.5398C144.18 11.2273 144.031 10.8324 144.034 10.3551C144.031 9.9517 144.14 9.60227 144.362 9.30682C144.586 9.00852 144.897 8.77841 145.295 8.61648C145.696 8.4517 146.157 8.36932 146.68 8.36932C147.447 8.36932 148.051 8.53267 148.491 8.85938C148.934 9.18608 149.208 9.62784 149.314 10.1847Z" fill="#636C7B"/>
</svg>
