<svg width="221" height="22" viewBox="0 0 221 22" fill="none" xmlns="http://www.w3.org/2000/svg">
<path d="M0 0H221L210.5 22H0V0Z" fill="#286FF2"/>
<path d="M0 0H86L73.5043 22H0V0Z" fill="#E8EAED"/>
<path d="M103.861 15V6.27273H107.134C107.804 6.27273 108.366 6.39773 108.821 6.64773C109.278 6.89773 109.624 7.24148 109.857 7.67898C110.092 8.11364 110.21 8.60795 110.21 9.16193C110.21 9.72159 110.092 10.2187 109.857 10.6534C109.621 11.0881 109.273 11.4304 108.812 11.6804C108.352 11.9276 107.786 12.0511 107.112 12.0511H104.943V10.7514H106.899C107.291 10.7514 107.612 10.6832 107.862 10.5469C108.112 10.4105 108.297 10.223 108.416 9.98438C108.538 9.74574 108.599 9.47159 108.599 9.16193C108.599 8.85227 108.538 8.57955 108.416 8.34375C108.297 8.10795 108.111 7.92472 107.858 7.79403C107.608 7.66051 107.286 7.59375 106.891 7.59375H105.442V15H103.861ZM111.515 15V8.45455H113.011V9.54545H113.079C113.199 9.16761 113.403 8.87642 113.693 8.67188C113.985 8.46449 114.319 8.3608 114.694 8.3608C114.779 8.3608 114.875 8.36506 114.98 8.37358C115.088 8.37926 115.177 8.3892 115.248 8.40341V9.82244C115.183 9.79972 115.079 9.77983 114.937 9.76278C114.798 9.7429 114.663 9.73295 114.532 9.73295C114.251 9.73295 113.998 9.79403 113.774 9.91619C113.552 10.0355 113.377 10.2017 113.25 10.4148C113.122 10.6278 113.058 10.8736 113.058 11.152V15H111.515ZM118.859 15.1278C118.219 15.1278 117.665 14.9872 117.197 14.706C116.728 14.4247 116.364 14.0312 116.106 13.5256C115.85 13.0199 115.722 12.429 115.722 11.7528C115.722 11.0767 115.85 10.4844 116.106 9.97585C116.364 9.46733 116.728 9.07244 117.197 8.79119C117.665 8.50994 118.219 8.36932 118.859 8.36932C119.498 8.36932 120.052 8.50994 120.521 8.79119C120.989 9.07244 121.352 9.46733 121.607 9.97585C121.866 10.4844 121.995 11.0767 121.995 11.7528C121.995 12.429 121.866 13.0199 121.607 13.5256C121.352 14.0312 120.989 14.4247 120.521 14.706C120.052 14.9872 119.498 15.1278 118.859 15.1278ZM118.867 13.892C119.214 13.892 119.504 13.7969 119.737 13.6065C119.969 13.4134 120.143 13.1548 120.256 12.831C120.373 12.5071 120.431 12.1463 120.431 11.7486C120.431 11.348 120.373 10.9858 120.256 10.6619C120.143 10.3352 119.969 10.0753 119.737 9.8821C119.504 9.68892 119.214 9.59233 118.867 9.59233C118.512 9.59233 118.217 9.68892 117.981 9.8821C117.748 10.0753 117.573 10.3352 117.457 10.6619C117.343 10.9858 117.286 11.348 117.286 11.7486C117.286 12.1463 117.343 12.5071 117.457 12.831C117.573 13.1548 117.748 13.4134 117.981 13.6065C118.217 13.7969 118.512 13.892 118.867 13.892ZM125.733 15.1151C125.219 15.1151 124.759 14.983 124.353 14.7188C123.946 14.4545 123.625 14.071 123.39 13.5682C123.154 13.0653 123.036 12.4545 123.036 11.7358C123.036 11.0085 123.155 10.3949 123.394 9.89489C123.635 9.39205 123.961 9.01278 124.37 8.7571C124.779 8.49858 125.235 8.36932 125.738 8.36932C126.121 8.36932 126.436 8.43466 126.684 8.56534C126.931 8.69318 127.127 8.84801 127.272 9.02983C127.417 9.20881 127.529 9.37784 127.608 9.53693H127.672V6.27273H129.219V15H127.702V13.9688H127.608C127.529 14.1278 127.414 14.2969 127.263 14.4759C127.113 14.652 126.914 14.8026 126.667 14.9276C126.419 15.0526 126.108 15.1151 125.733 15.1151ZM126.164 13.8494C126.49 13.8494 126.769 13.7614 126.999 13.5852C127.229 13.4062 127.404 13.1577 127.523 12.8395C127.642 12.5213 127.702 12.1506 127.702 11.7273C127.702 11.304 127.642 10.9361 127.523 10.6236C127.407 10.3111 127.233 10.0682 127.003 9.89489C126.776 9.72159 126.496 9.63494 126.164 9.63494C125.82 9.63494 125.533 9.72443 125.303 9.90341C125.073 10.0824 124.9 10.3295 124.783 10.6449C124.667 10.9602 124.608 11.321 124.608 11.7273C124.608 12.1364 124.667 12.5014 124.783 12.8224C124.902 13.1406 125.077 13.392 125.307 13.5767C125.54 13.7585 125.826 13.8494 126.164 13.8494ZM135.035 12.2472V8.45455H136.577V15H135.082V13.8366H135.013C134.866 14.2031 134.623 14.5028 134.285 14.7358C133.95 14.9687 133.536 15.0852 133.045 15.0852C132.616 15.0852 132.237 14.9901 131.907 14.7997C131.58 14.6065 131.325 14.3267 131.14 13.9602C130.955 13.5909 130.863 13.1449 130.863 12.6222V8.45455H132.406V12.3835C132.406 12.7983 132.519 13.1278 132.746 13.3722C132.974 13.6165 133.272 13.7386 133.641 13.7386C133.869 13.7386 134.089 13.6832 134.302 13.5724C134.515 13.4616 134.69 13.2969 134.826 13.0781C134.965 12.8565 135.035 12.5795 135.035 12.2472ZM141.019 15.1278C140.365 15.1278 139.804 14.9844 139.336 14.6974C138.87 14.4105 138.51 14.0142 138.257 13.5085C138.007 13 137.882 12.4148 137.882 11.7528C137.882 11.0881 138.01 10.5014 138.266 9.9929C138.522 9.48153 138.882 9.08381 139.348 8.79972C139.817 8.51278 140.371 8.36932 141.01 8.36932C141.542 8.36932 142.012 8.46733 142.421 8.66335C142.833 8.85653 143.161 9.13068 143.405 9.4858C143.65 9.83807 143.789 10.25 143.823 10.7216H142.348C142.289 10.4062 142.147 10.1435 141.922 9.93324C141.701 9.72017 141.404 9.61364 141.032 9.61364C140.716 9.61364 140.439 9.69886 140.201 9.86932C139.962 10.0369 139.776 10.2784 139.642 10.5938C139.512 10.9091 139.446 11.2869 139.446 11.7273C139.446 12.1733 139.512 12.5568 139.642 12.8778C139.773 13.196 139.956 13.4418 140.192 13.6151C140.431 13.7855 140.711 13.8707 141.032 13.8707C141.259 13.8707 141.462 13.8281 141.641 13.7429C141.823 13.6548 141.975 13.5284 142.097 13.3636C142.219 13.1989 142.303 12.9986 142.348 12.7628H143.823C143.786 13.2259 143.65 13.6364 143.414 13.9943C143.178 14.3494 142.857 14.6278 142.451 14.8295C142.044 15.0284 141.567 15.1278 141.019 15.1278ZM148.358 8.45455V9.64773H144.595V8.45455H148.358ZM145.524 6.88636H147.067V13.0312C147.067 13.2386 147.098 13.3977 147.161 13.5085C147.226 13.6165 147.311 13.6903 147.416 13.7301C147.521 13.7699 147.638 13.7898 147.766 13.7898C147.862 13.7898 147.95 13.7827 148.03 13.7685C148.112 13.7543 148.175 13.7415 148.217 13.7301L148.477 14.9361C148.395 14.9645 148.277 14.9957 148.124 15.0298C147.973 15.0639 147.788 15.0838 147.57 15.0895C147.183 15.1009 146.835 15.0426 146.526 14.9148C146.216 14.7841 145.97 14.5824 145.788 14.3097C145.609 14.0369 145.521 13.696 145.524 13.2869V6.88636ZM152.693 15V6.27273H158.284V7.59801H154.274V9.96733H157.9V11.2926H154.274V15H152.693ZM159.656 15V8.45455H161.199V15H159.656ZM160.431 7.52557C160.187 7.52557 159.977 7.4446 159.801 7.28267C159.625 7.1179 159.537 6.92045 159.537 6.69034C159.537 6.45739 159.625 6.25994 159.801 6.09801C159.977 5.93324 160.187 5.85085 160.431 5.85085C160.679 5.85085 160.889 5.93324 161.062 6.09801C161.238 6.25994 161.326 6.45739 161.326 6.69034C161.326 6.92045 161.238 7.1179 161.062 7.28267C160.889 7.4446 160.679 7.52557 160.431 7.52557ZM164.327 11.1648V15H162.785V8.45455H164.259V9.56676H164.336C164.487 9.20028 164.727 8.90909 165.056 8.69318C165.388 8.47727 165.799 8.36932 166.288 8.36932C166.739 8.36932 167.133 8.46591 167.468 8.65909C167.806 8.85227 168.067 9.1321 168.252 9.49858C168.44 9.86506 168.532 10.3097 168.529 10.8324V15H166.987V11.071C166.987 10.6335 166.873 10.2912 166.646 10.044C166.421 9.79687 166.11 9.6733 165.712 9.6733C165.442 9.6733 165.202 9.73295 164.992 9.85227C164.785 9.96875 164.621 10.1378 164.502 10.3594C164.386 10.581 164.327 10.8494 164.327 11.1648ZM172.526 15.1151C172.012 15.1151 171.552 14.983 171.146 14.7188C170.739 14.4545 170.418 14.071 170.183 13.5682C169.947 13.0653 169.829 12.4545 169.829 11.7358C169.829 11.0085 169.948 10.3949 170.187 9.89489C170.428 9.39205 170.754 9.01278 171.163 8.7571C171.572 8.49858 172.028 8.36932 172.531 8.36932C172.914 8.36932 173.229 8.43466 173.477 8.56534C173.724 8.69318 173.92 8.84801 174.065 9.02983C174.21 9.20881 174.322 9.37784 174.401 9.53693H174.465V6.27273H176.012V15H174.495V13.9688H174.401C174.322 14.1278 174.207 14.2969 174.056 14.4759C173.906 14.652 173.707 14.8026 173.46 14.9276C173.212 15.0526 172.901 15.1151 172.526 15.1151ZM172.957 13.8494C173.283 13.8494 173.562 13.7614 173.792 13.5852C174.022 13.4062 174.197 13.1577 174.316 12.8395C174.435 12.5213 174.495 12.1506 174.495 11.7273C174.495 11.304 174.435 10.9361 174.316 10.6236C174.2 10.3111 174.026 10.0682 173.796 9.89489C173.569 9.72159 173.289 9.63494 172.957 9.63494C172.613 9.63494 172.326 9.72443 172.096 9.90341C171.866 10.0824 171.692 10.3295 171.576 10.6449C171.46 10.9602 171.401 11.321 171.401 11.7273C171.401 12.1364 171.46 12.5014 171.576 12.8224C171.695 13.1406 171.87 13.392 172.1 13.5767C172.333 13.7585 172.619 13.8494 172.957 13.8494ZM180.554 15.1278C179.897 15.1278 179.331 14.9915 178.853 14.7188C178.379 14.4432 178.014 14.054 177.758 13.5511C177.502 13.0455 177.375 12.4503 177.375 11.7656C177.375 11.0923 177.502 10.5014 177.758 9.9929C178.017 9.48153 178.377 9.08381 178.841 8.79972C179.304 8.51278 179.848 8.36932 180.473 8.36932C180.876 8.36932 181.257 8.43466 181.615 8.56534C181.975 8.69318 182.294 8.89205 182.569 9.16193C182.848 9.43182 183.066 9.77557 183.225 10.1932C183.385 10.608 183.464 11.1023 183.464 11.6761V12.1491H178.099V11.1094H181.985C181.983 10.8139 181.919 10.5511 181.794 10.321C181.669 10.0881 181.494 9.90483 181.27 9.77131C181.048 9.63778 180.789 9.57102 180.494 9.57102C180.179 9.57102 179.902 9.64773 179.663 9.80114C179.424 9.9517 179.238 10.1506 179.105 10.3977C178.974 10.642 178.907 10.9105 178.904 11.2031V12.1108C178.904 12.4915 178.974 12.8182 179.113 13.0909C179.252 13.3608 179.447 13.5682 179.697 13.7131C179.947 13.8551 180.24 13.9261 180.575 13.9261C180.799 13.9261 181.002 13.8949 181.184 13.8324C181.366 13.767 181.524 13.6719 181.657 13.5469C181.791 13.4219 181.892 13.267 181.96 13.0824L183.4 13.2443C183.309 13.625 183.136 13.9574 182.88 14.2415C182.627 14.5227 182.304 14.7415 181.909 14.8977C181.514 15.0511 181.062 15.1278 180.554 15.1278ZM184.769 15V8.45455H186.265V9.54545H186.333C186.452 9.16761 186.657 8.87642 186.947 8.67188C187.239 8.46449 187.573 8.3608 187.948 8.3608C188.033 8.3608 188.129 8.36506 188.234 8.37358C188.342 8.37926 188.431 8.3892 188.502 8.40341V9.82244C188.437 9.79972 188.333 9.77983 188.191 9.76278C188.052 9.7429 187.917 9.73295 187.786 9.73295C187.505 9.73295 187.252 9.79403 187.028 9.91619C186.806 10.0355 186.631 10.2017 186.504 10.4148C186.376 10.6278 186.312 10.8736 186.312 11.152V15H184.769Z" fill="white"/>
<path d="M20.8608 15V6.27273H22.4418V9.96733H26.4858V6.27273H28.071V15H26.4858V11.2926H22.4418V15H20.8608ZM32.5774 15.1278C31.9382 15.1278 31.3842 14.9872 30.9155 14.706C30.4467 14.4247 30.0831 14.0312 29.8246 13.5256C29.5689 13.0199 29.4411 12.429 29.4411 11.7528C29.4411 11.0767 29.5689 10.4844 29.8246 9.97585C30.0831 9.46733 30.4467 9.07244 30.9155 8.79119C31.3842 8.50994 31.9382 8.36932 32.5774 8.36932C33.2166 8.36932 33.7706 8.50994 34.2393 8.79119C34.7081 9.07244 35.0703 9.46733 35.326 9.97585C35.5845 10.4844 35.7138 11.0767 35.7138 11.7528C35.7138 12.429 35.5845 13.0199 35.326 13.5256C35.0703 14.0312 34.7081 14.4247 34.2393 14.706C33.7706 14.9872 33.2166 15.1278 32.5774 15.1278ZM32.5859 13.892C32.9325 13.892 33.2223 13.7969 33.4553 13.6065C33.6882 13.4134 33.8615 13.1548 33.9751 12.831C34.0916 12.5071 34.1499 12.1463 34.1499 11.7486C34.1499 11.348 34.0916 10.9858 33.9751 10.6619C33.8615 10.3352 33.6882 10.0753 33.4553 9.8821C33.2223 9.68892 32.9325 9.59233 32.5859 9.59233C32.2308 9.59233 31.9354 9.68892 31.6996 9.8821C31.4666 10.0753 31.2919 10.3352 31.1754 10.6619C31.0618 10.9858 31.005 11.348 31.005 11.7486C31.005 12.1463 31.0618 12.5071 31.1754 12.831C31.2919 13.1548 31.4666 13.4134 31.6996 13.6065C31.9354 13.7969 32.2308 13.892 32.5859 13.892ZM37.0231 15V8.45455H38.4975V9.56676H38.5742C38.7106 9.19176 38.9364 8.89915 39.2518 8.68892C39.5671 8.47585 39.9435 8.36932 40.381 8.36932C40.8242 8.36932 41.1978 8.47727 41.5018 8.69318C41.8086 8.90625 42.0245 9.19744 42.1495 9.56676H42.2177C42.3626 9.20312 42.6069 8.91335 42.9506 8.69744C43.2972 8.47869 43.7077 8.36932 44.1822 8.36932C44.7844 8.36932 45.2759 8.55966 45.6566 8.94034C46.0373 9.32102 46.2276 9.87642 46.2276 10.6065V15H44.6808V10.8452C44.6808 10.4389 44.5728 10.142 44.3569 9.95455C44.141 9.7642 43.8768 9.66903 43.5643 9.66903C43.1921 9.66903 42.9009 9.78551 42.6907 10.0185C42.4833 10.2486 42.3796 10.5483 42.3796 10.9176V15H40.8668V10.7812C40.8668 10.4432 40.7646 10.1733 40.56 9.97159C40.3583 9.76989 40.0941 9.66903 39.7674 9.66903C39.5458 9.66903 39.3441 9.72585 39.1623 9.83949C38.9805 9.95028 38.8356 10.108 38.7276 10.3125C38.6197 10.5142 38.5657 10.75 38.5657 11.0199V15H37.0231ZM50.6903 15.1278C50.0341 15.1278 49.4673 14.9915 48.9901 14.7188C48.5156 14.4432 48.1506 14.054 47.8949 13.5511C47.6392 13.0455 47.5114 12.4503 47.5114 11.7656C47.5114 11.0923 47.6392 10.5014 47.8949 9.9929C48.1534 9.48153 48.5142 9.08381 48.9773 8.79972C49.4403 8.51278 49.9844 8.36932 50.6094 8.36932C51.0128 8.36932 51.3935 8.43466 51.7514 8.56534C52.1122 8.69318 52.4304 8.89205 52.706 9.16193C52.9844 9.43182 53.2031 9.77557 53.3622 10.1932C53.5213 10.608 53.6009 11.1023 53.6009 11.6761V12.1491H48.2358V11.1094H52.1222C52.1193 10.8139 52.0554 10.5511 51.9304 10.321C51.8054 10.0881 51.6307 9.90483 51.4062 9.77131C51.1847 9.63778 50.9261 9.57102 50.6307 9.57102C50.3153 9.57102 50.0384 9.64773 49.7997 9.80114C49.5611 9.9517 49.375 10.1506 49.2415 10.3977C49.1108 10.642 49.044 10.9105 49.0412 11.2031V12.1108C49.0412 12.4915 49.1108 12.8182 49.25 13.0909C49.3892 13.3608 49.5838 13.5682 49.8338 13.7131C50.0838 13.8551 50.3764 13.9261 50.7116 13.9261C50.9361 13.9261 51.1392 13.8949 51.321 13.8324C51.5028 13.767 51.6605 13.6719 51.794 13.5469C51.9276 13.4219 52.0284 13.267 52.0966 13.0824L53.5369 13.2443C53.446 13.625 53.2727 13.9574 53.017 14.2415C52.7642 14.5227 52.4403 14.7415 52.0455 14.8977C51.6506 15.0511 51.1989 15.1278 50.6903 15.1278Z" fill="#636C7B"/>
</svg>
