<svg width="135" height="38" viewBox="0 0 135 38" fill="none" xmlns="http://www.w3.org/2000/svg">
<rect width="135" height="38" fill="#1E1E1E"/>
<path d="M-366 -2903C-366 -2904.1 -365.105 -2905 -364 -2905H3113C3114.1 -2905 3115 -2904.1 3115 -2903V909C3115 910.104 3114.1 911 3113 911H-364C-365.105 911 -366 910.104 -366 909V-2903Z" fill="#404040"/>
<path d="M-364 -2904H3113V-2906H-364V-2904ZM3114 -2903V909H3116V-2903H3114ZM3113 910H-364V912H3113V910ZM-365 909V-2903H-367V909H-365ZM-364 910C-364.552 910 -365 909.552 -365 909H-367C-367 910.657 -365.657 912 -364 912V910ZM3114 909C3114 909.552 3113.55 910 3113 910V912C3114.66 912 3116 910.657 3116 909H3114ZM3113 -2904C3113.55 -2904 3114 -2903.55 3114 -2903H3116C3116 -2904.66 3114.66 -2906 3113 -2906V-2904ZM-364 -2906C-365.657 -2906 -367 -2904.66 -367 -2903H-365C-365 -2903.55 -364.552 -2904 -364 -2904V-2906Z" fill="black" fill-opacity="0.1"/>
<g clip-path="url(#clip0_49_2)">
<rect width="1280" height="3063" transform="translate(-87 -2640)" fill="white"/>
<rect x="-87" y="-94" width="1280" height="521" fill="#286FF2"/>
<rect width="135" height="38" fill="#FFF242"/>
<path d="M22.2595 27.168C21.5875 27.168 21.0915 26.808 20.7715 26.088L16.7635 16.776C16.5715 16.344 16.5635 15.96 16.7395 15.624C16.9155 15.288 17.2755 15.12 17.8195 15.12C18.1075 15.12 18.3395 15.192 18.5155 15.336C18.7075 15.48 18.8755 15.728 19.0195 16.08L22.3075 24.192L25.6675 16.08C25.8115 15.728 25.9715 15.48 26.1475 15.336C26.3395 15.192 26.6035 15.12 26.9395 15.12C27.3715 15.12 27.6675 15.288 27.8275 15.624C27.9875 15.96 27.9795 16.336 27.8035 16.752L23.7475 26.088C23.4435 26.808 22.9475 27.168 22.2595 27.168ZM35.0693 27.216C33.8853 27.216 32.8613 26.968 31.9973 26.472C31.1333 25.976 30.4613 25.28 29.9813 24.384C29.5173 23.472 29.2853 22.392 29.2853 21.144C29.2853 19.896 29.5173 18.824 29.9813 17.928C30.4613 17.016 31.1333 16.312 31.9973 15.816C32.8613 15.32 33.8853 15.072 35.0693 15.072C36.2213 15.072 37.2293 15.32 38.0933 15.816C38.9573 16.312 39.6293 17.016 40.1093 17.928C40.5893 18.824 40.8293 19.896 40.8293 21.144C40.8293 22.392 40.5893 23.472 40.1093 24.384C39.6293 25.28 38.9573 25.976 38.0933 26.472C37.2293 26.968 36.2213 27.216 35.0693 27.216ZM35.0693 25.344C36.0613 25.344 36.8613 24.984 37.4693 24.264C38.0773 23.544 38.3813 22.504 38.3813 21.144C38.3813 19.784 38.0773 18.752 37.4693 18.048C36.8613 17.328 36.0613 16.968 35.0693 16.968C34.0613 16.968 33.2533 17.328 32.6453 18.048C32.0373 18.752 31.7333 19.784 31.7333 21.144C31.7333 22.504 32.0373 23.544 32.6453 24.264C33.2533 24.984 34.0613 25.344 35.0693 25.344ZM47.3197 27.216C46.0717 27.216 45.1277 26.856 44.4877 26.136C43.8637 25.416 43.5517 24.36 43.5517 22.968V11.136C43.5517 10.32 43.9517 9.912 44.7517 9.912C45.5677 9.912 45.9757 10.32 45.9757 11.136V22.824C45.9757 24.408 46.6157 25.2 47.8957 25.2C48.0397 25.2 48.1677 25.192 48.2797 25.176C48.3917 25.16 48.5037 25.152 48.6157 25.152C48.8077 25.136 48.9437 25.192 49.0237 25.32C49.1037 25.432 49.1437 25.672 49.1437 26.04C49.1437 26.696 48.8397 27.072 48.2317 27.168C48.0717 27.184 47.9117 27.192 47.7517 27.192C47.6077 27.208 47.4637 27.216 47.3197 27.216ZM55.6218 27.216C54.1498 27.216 53.0538 26.84 52.3338 26.088C51.6138 25.336 51.2538 24.248 51.2538 22.824V17.16H49.8138C49.1418 17.16 48.8058 16.848 48.8058 16.224C48.8058 15.6 49.1418 15.288 49.8138 15.288H51.2538V12.816C51.2538 12 51.6618 11.592 52.4778 11.592C53.2778 11.592 53.6778 12 53.6778 12.816V15.288H56.4858C57.1578 15.288 57.4938 15.6 57.4938 16.224C57.4938 16.848 57.1578 17.16 56.4858 17.16H53.6778V22.632C53.6778 23.48 53.8538 24.12 54.2058 24.552C54.5738 24.984 55.1658 25.2 55.9818 25.2C56.2698 25.2 56.5178 25.176 56.7258 25.128C56.9338 25.064 57.1178 25.024 57.2778 25.008C57.4538 25.008 57.5978 25.072 57.7098 25.2C57.8218 25.312 57.8778 25.536 57.8778 25.872C57.8778 26.128 57.8298 26.36 57.7338 26.568C57.6538 26.76 57.5018 26.888 57.2778 26.952C57.0858 27.032 56.8218 27.096 56.4858 27.144C56.1658 27.192 55.8778 27.216 55.6218 27.216ZM60.8063 12.672C60.3263 12.672 59.9503 12.552 59.6783 12.312C59.4223 12.072 59.2943 11.736 59.2943 11.304C59.2943 10.392 59.7983 9.936 60.8063 9.936C61.8143 9.936 62.3183 10.392 62.3183 11.304C62.3183 12.216 61.8143 12.672 60.8063 12.672ZM60.8063 27.144C60.0063 27.144 59.6063 26.704 59.6063 25.824V16.464C59.6063 15.6 60.0063 15.168 60.8063 15.168C61.6223 15.168 62.0303 15.6 62.0303 16.464V25.824C62.0303 26.704 61.6223 27.144 60.8063 27.144ZM66.6903 27.168C65.8903 27.168 65.4903 26.76 65.4903 25.944V16.344C65.4903 15.528 65.8823 15.12 66.6663 15.12C67.4503 15.12 67.8423 15.528 67.8423 16.344V17.184C68.1943 16.512 68.6823 15.992 69.3063 15.624C69.9303 15.256 70.6583 15.072 71.4903 15.072C73.2823 15.072 74.4423 15.856 74.9703 17.424C75.3383 16.688 75.8663 16.112 76.5543 15.696C77.2423 15.28 78.0263 15.072 78.9063 15.072C81.5303 15.072 82.8423 16.64 82.8423 19.776V25.944C82.8423 26.76 82.4343 27.168 81.6183 27.168C80.8183 27.168 80.4183 26.76 80.4183 25.944V19.896C80.4183 18.904 80.2423 18.176 79.8903 17.712C79.5543 17.248 78.9943 17.016 78.2103 17.016C77.3303 17.016 76.6343 17.328 76.1223 17.952C75.6103 18.56 75.3543 19.392 75.3543 20.448V25.944C75.3543 26.76 74.9543 27.168 74.1543 27.168C73.3383 27.168 72.9303 26.76 72.9303 25.944V19.896C72.9303 18.904 72.7623 18.176 72.4263 17.712C72.0903 17.248 71.5303 17.016 70.7463 17.016C69.8663 17.016 69.1703 17.328 68.6583 17.952C68.1623 18.56 67.9143 19.392 67.9143 20.448V25.944C67.9143 26.76 67.5063 27.168 66.6903 27.168ZM90.4073 27.216C87.5753 27.216 86.1593 25.64 86.1593 22.488V16.344C86.1593 15.528 86.5593 15.12 87.3593 15.12C88.1753 15.12 88.5833 15.528 88.5833 16.344V22.512C88.5833 23.456 88.7753 24.152 89.1593 24.6C89.5433 25.048 90.1513 25.272 90.9833 25.272C91.8953 25.272 92.6313 24.968 93.1913 24.36C93.7673 23.752 94.0553 22.936 94.0553 21.912V16.344C94.0553 15.528 94.4633 15.12 95.2793 15.12C96.0793 15.12 96.4793 15.528 96.4793 16.344V25.944C96.4793 26.76 96.0873 27.168 95.3033 27.168C94.5193 27.168 94.1273 26.76 94.1273 25.944V25.128C93.7433 25.816 93.2313 26.336 92.5913 26.688C91.9513 27.04 91.2233 27.216 90.4073 27.216ZM101.143 27.168C100.343 27.168 99.9434 26.76 99.9434 25.944V16.344C99.9434 15.528 100.335 15.12 101.119 15.12C101.903 15.12 102.295 15.528 102.295 16.344V17.184C102.647 16.512 103.135 15.992 103.759 15.624C104.383 15.256 105.111 15.072 105.943 15.072C107.735 15.072 108.895 15.856 109.423 17.424C109.791 16.688 110.319 16.112 111.007 15.696C111.695 15.28 112.479 15.072 113.359 15.072C115.983 15.072 117.295 16.64 117.295 19.776V25.944C117.295 26.76 116.887 27.168 116.071 27.168C115.271 27.168 114.871 26.76 114.871 25.944V19.896C114.871 18.904 114.695 18.176 114.343 17.712C114.007 17.248 113.447 17.016 112.663 17.016C111.783 17.016 111.087 17.328 110.575 17.952C110.063 18.56 109.807 19.392 109.807 20.448V25.944C109.807 26.76 109.407 27.168 108.607 27.168C107.791 27.168 107.383 26.76 107.383 25.944V19.896C107.383 18.904 107.215 18.176 106.879 17.712C106.543 17.248 105.983 17.016 105.199 17.016C104.319 17.016 103.623 17.328 103.111 17.952C102.615 18.56 102.367 19.392 102.367 20.448V25.944C102.367 26.76 101.959 27.168 101.143 27.168Z" fill="black"/>
</g>
<defs>
<clipPath id="clip0_49_2">
<rect width="1280" height="3063" fill="white" transform="translate(-87 -2640)"/>
</clipPath>
</defs>
</svg>
