<svg width="48" height="48" viewBox="0 0 48 48" fill="none" xmlns="http://www.w3.org/2000/svg">
<rect width="46" height="46" rx="5" fill="#FFF242"/>
<path d="M32.8938 14.152L25.1178 37H19.8378L12.0938 14.152H16.9898L21.2778 27.752C21.3631 27.9867 21.4804 28.424 21.6298 29.064C21.8004 29.6827 21.9711 30.344 22.1418 31.048C22.3124 31.7307 22.4298 32.3067 22.4938 32.776C22.5578 32.3067 22.6644 31.7307 22.8138 31.048C22.9844 30.344 23.1551 29.6827 23.3258 29.064C23.4964 28.424 23.6138 27.9867 23.6778 27.752L27.9978 14.152H32.8938Z" fill="black"/>
<rect x="33" y="33" width="15" height="15" rx="3" fill="black"/>
<line x1="40.5" y1="35" x2="40.5" y2="46" stroke="white"/>
<line x1="35" y1="40.5" x2="46" y2="40.5" stroke="white"/>
</svg>
